<?xml version="1.0" encoding="UTF-8"?>
<svg version="1.1" xmlns="http://www.w3.org/2000/svg" width="975" height="975">
<path d="M0 0 C1.01890823 -0.00570007 2.03781647 -0.01140015 3.08760071 -0.01727295 C5.238159 -0.02666766 7.38873132 -0.03323476 9.53930664 -0.03710938 C12.74718171 -0.04671451 15.95438683 -0.07774991 19.16210938 -0.109375 C33.3715024 -0.18233204 47.08880072 0.93067254 61.11328125 3.203125 C62.31122314 3.39664551 63.50916504 3.59016602 64.7434082 3.78955078 C67.48521829 4.2716522 70.2041049 4.80626811 72.92578125 5.390625 C73.89966797 5.59856689 74.87355469 5.80650879 75.87695312 6.02075195 C125.5993263 17.07852034 175.09171158 41.78487613 210.70703125 78.796875 C212.22404398 80.37283504 212.22404398 80.37283504 214.61328125 82.140625 C217.45608786 84.48594045 219.70633097 87.06886192 222.09375 89.8671875 C224.37931032 92.51083367 226.74311152 95.07264141 229.11328125 97.640625 C241.11328125 110.81493693 241.11328125 110.81493693 241.11328125 114.203125 C242.59828125 113.708125 242.59828125 113.708125 244.11328125 113.203125 C245.59883871 113.05756368 247.08938612 112.96002199 248.58056641 112.89331055 C249.9337648 112.83177544 249.9337648 112.83177544 251.31430054 112.76899719 C252.2921048 112.73050156 253.26990906 112.69200592 254.27734375 112.65234375 C255.29986237 112.61050461 256.32238098 112.56866547 257.37588501 112.52555847 C268.74574491 112.09340566 280.11125233 112.00375079 291.48828125 112.015625 C292.57212097 112.01622925 293.65596069 112.0168335 294.77264404 112.01745605 C348.99125028 112.0989355 423.19800856 112.29778502 466.11328125 150.203125 C466.71914063 150.66847656 467.325 151.13382813 467.94921875 151.61328125 C478.41751289 159.81877819 484.47702209 172.17365391 486.11328125 185.203125 C488.23370448 207.70937156 475.85370046 227.67593454 462.23828125 244.390625 C451.14094988 257.37081526 438.75411157 269.90563544 425.11328125 280.203125 C423.89061348 281.1636949 422.66937623 282.12608717 421.44921875 283.08984375 C384.71688621 311.89630755 336.31092338 346.11089752 291.44335938 360.03149414 C288.9405068 361.01422664 288.9405068 361.01422664 287.87817383 363.4519043 C287.59095459 364.38429932 287.30373535 365.31669434 287.0078125 366.27734375 C286.66951416 367.32591553 286.33121582 368.3744873 285.98266602 369.45483398 C285.63389404 370.58864502 285.28512207 371.72245605 284.92578125 372.890625 C272.54638814 410.73440623 253.19983482 445.58378574 226.16015625 474.97265625 C224.26656938 477.03608774 222.43501961 479.13887081 220.61328125 481.265625 C214.31983917 488.4747411 207.44051631 495.05807962 200.11328125 501.203125 C199.59475586 501.6460791 199.07623047 502.0890332 198.54199219 502.54541016 C182.71403265 516.02701388 165.49274633 527.49781266 147.11328125 537.203125 C146.50838867 537.52941895 145.90349609 537.85571289 145.28027344 538.19189453 C79.51354903 573.53054778 0.27233925 579.22580571 -70.86401367 558.1328125 C-108.33405881 546.50639804 -141.95806065 527.60229029 -171.88671875 502.390625 C-172.41628174 501.94468994 -172.94584473 501.49875488 -173.49145508 501.03930664 C-175.86418403 499.01644893 -178.1358944 496.95275713 -180.3359375 494.7421875 C-181.07457031 494.00742187 -181.81320312 493.27265625 -182.57421875 492.515625 C-183.17621094 491.87238281 -183.77820313 491.22914063 -184.3984375 490.56640625 C-191.40085526 486.72991677 -202.44726864 489.51653869 -210.20705605 490.04039955 C-227.8102289 491.20730642 -245.36006065 491.56654482 -262.99805069 491.52118301 C-265.2466972 491.51550512 -267.49533606 491.51270896 -269.74398804 491.51010132 C-292.22889182 491.47224419 -314.55647566 491.0720951 -336.88671875 488.203125 C-337.57330566 488.11591187 -338.25989258 488.02869873 -338.96728516 487.93884277 C-372.76447908 483.61020516 -410.46150781 477.04085663 -437.88671875 455.203125 C-438.73878906 454.52636719 -439.59085937 453.84960938 -440.46875 453.15234375 C-446.68015159 447.90943656 -451.08541866 442.38223817 -454.88671875 435.203125 C-455.32113281 434.4090625 -455.75554687 433.615 -456.203125 432.796875 C-461.58327309 420.94930151 -460.4322471 405.0551196 -456.28588867 392.95483398 C-444.93953935 363.16640503 -419.36085274 339.4199324 -394.56152344 320.49267578 C-393.01176842 319.2994096 -391.48335529 318.07856308 -389.95703125 316.85546875 C-355.54938582 289.52101303 -315.93414188 268.98719108 -276.88671875 249.203125 C-275.79512451 248.63553467 -274.70353027 248.06794434 -273.57885742 247.4831543 C-270.88671875 246.203125 -270.88671875 246.203125 -268.88671875 246.203125 C-268.84353516 245.48261963 -268.80035156 244.76211426 -268.75585938 244.01977539 C-266.60063268 213.33003924 -255.3864666 183.56281691 -241.88671875 156.203125 C-241.5107959 155.4282373 -241.13487305 154.65334961 -240.74755859 153.85498047 C-232.2495335 136.45093182 -221.1526478 120.16527994 -208.88671875 105.203125 C-208.43071289 104.64560547 -207.97470703 104.08808594 -207.50488281 103.51367188 C-195.1222678 88.49486548 -181.42222633 73.98382712 -165.88671875 62.203125 C-164.88898438 61.41164062 -163.89125 60.62015625 -162.86328125 59.8046875 C-117.36949681 23.8207064 -58.3907591 0.26175157 0 0 Z M287.11328125 204.203125 C288.11328053 209.3217889 289.1510948 214.42742557 290.296875 219.515625 C294.67392239 239.19678002 297.14959186 259.06533991 298.11328125 279.203125 C335.12152936 262.90672257 335.12152936 262.90672257 362.11328125 234.203125 C363.62494659 229.59402773 363.66460203 226.48118681 361.73828125 222.015625 C347.08261934 206.3131301 319.33936875 204.94130338 299.11328125 204.203125 C295.11137629 204.14101118 291.11506986 204.13716145 287.11328125 204.203125 Z M200.11328125 276.203125 C199.18087003 277.47961039 198.29739184 278.79183246 197.43286133 280.11523438 C196.8717012 280.97032593 196.31054108 281.82541748 195.7323761 282.7064209 C195.12202011 283.64377075 194.51166412 284.58112061 193.8828125 285.546875 C193.25477219 286.50452759 192.62673187 287.46218018 191.97966003 288.44885254 C189.95839969 291.53146284 187.94168734 294.61701101 185.92578125 297.703125 C183.92745613 300.76049255 181.92807704 303.81714535 179.92546082 306.8717041 C178.67737027 308.77553501 177.43172551 310.6809723 176.18891907 312.58825684 C175.0475016 314.32991645 173.89021105 316.06130495 172.71525574 317.78051758 C171.08821143 320.15642929 171.08821143 320.15642929 169.82929993 322.6237793 C168.43229133 325.01960075 167.3486112 326.55114025 165.11328125 328.203125 C160.51899328 329.11440191 156.13654543 328.71660486 151.4921875 328.328125 C150.14686666 328.2456795 148.80130694 328.1670528 147.45555115 328.09204102 C143.91219067 327.88489325 140.37404737 327.62900776 136.83477783 327.36175537 C132.58376148 327.04941569 128.32906681 326.79359152 124.07482052 326.52972412 C120.75243521 326.32259912 117.4320314 326.10479273 114.11170959 325.86572266 C105.42054384 325.25428926 96.8210019 325.09915394 88.11328125 325.203125 C89.93843145 329.04274991 92.34154623 332.21090536 94.98828125 335.515625 C95.71096191 336.42671021 95.71096191 336.42671021 96.44824219 337.35620117 C97.99899129 339.30861726 99.55535264 341.25643416 101.11328125 343.203125 C101.63374023 343.85410156 102.15419922 344.50507813 102.69042969 345.17578125 C104.75397092 347.75616966 106.81825247 350.33595645 108.88525391 352.91357422 C112.67413328 357.64122449 116.41798155 362.40183772 120.11328125 367.203125 C118.76336759 370.35390509 117.45053146 371.98975618 114.6484375 373.9453125 C113.94082275 374.44667725 113.23320801 374.94804199 112.50415039 375.46459961 C111.73578857 375.99706299 110.96742676 376.52952637 110.17578125 377.078125 C108.5292648 378.24252422 106.88345366 379.40792131 105.23828125 380.57421875 C104.38878906 381.17347168 103.53929687 381.77272461 102.6640625 382.39013672 C98.63083644 385.25678457 94.6528506 388.19679761 90.67578125 391.140625 C89.1029872 392.30355127 87.53006953 393.46631036 85.95703125 394.62890625 C85.16941406 395.2110791 84.38179687 395.79325195 83.5703125 396.39306641 C80.99640672 398.28922474 78.41506625 400.17489366 75.83203125 402.05859375 C74.96892334 402.68967041 74.10581543 403.32074707 73.21655273 403.97094727 C71.56440515 405.17858507 69.91036907 406.38364494 68.25415039 407.58569336 C64.61028793 410.25418843 61.1760052 412.85454681 58.11328125 416.203125 C67.35181809 415.58206696 76.39228773 414.07060979 85.5 412.48046875 C87.05363042 412.21247641 88.60732734 411.94486936 90.16108704 411.67762756 C94.21403778 410.97948391 98.2660747 410.27617365 102.31793213 409.57171631 C106.46726608 408.85127712 110.61745886 408.13582078 114.76757812 407.41992188 C122.88365246 406.01914814 130.99876651 404.61290505 139.11328125 403.203125 C139.02558472 403.7933696 138.93788818 404.3836142 138.84753418 404.991745 C137.93487632 411.13928804 137.02726034 417.28756046 136.12255859 423.4362793 C135.78433201 425.73041541 135.44482357 428.02436292 135.10400391 430.31811523 C134.61413238 433.61653591 134.12888595 436.91560902 133.64453125 440.21484375 C133.49141479 441.23897873 133.33829834 442.26311371 133.18054199 443.31828308 C133.04039673 444.27890152 132.90025146 445.23951996 132.75585938 446.22924805 C132.63150513 447.07085983 132.50715088 447.91247162 132.37902832 448.77958679 C132.10552638 451.27384724 132.06728624 453.69599508 132.11328125 456.203125 C133.26692782 455.04947843 134.4198929 453.89514578 135.5703125 452.73828125 C136.59903785 451.71476464 137.63821005 450.70164215 138.6875 449.69921875 C142.13712032 446.36217346 145.23517275 442.88626032 148.23828125 439.140625 C151.89971133 434.58891569 155.74463419 430.27802048 159.73828125 426.015625 C160.30208496 425.41379395 160.86588867 424.81196289 161.44677734 424.19189453 C161.99414551 423.60778809 162.54151367 423.02368164 163.10546875 422.421875 C169.78434509 415.29444812 175.9635838 407.78914635 182.11328125 400.203125 C186.77305189 400.90953095 190.85718267 402.58586805 195.1875 404.36328125 C196.33506523 404.82727577 196.33506523 404.82727577 197.5058136 405.30064392 C199.93916808 406.28484204 202.37017355 407.27466458 204.80078125 408.265625 C207.24222778 409.25982601 209.68416736 410.25270863 212.12788391 411.24131775 C213.64616236 411.8556085 215.16312605 412.47316072 216.67863464 413.09425354 C220.27959386 414.65753878 220.27959386 414.65753878 224.11328125 415.203125 C223.84948906 410.54394825 223.58285108 405.88494567 223.3137207 401.22607422 C223.22279345 399.64538847 223.13260675 398.06465993 223.04321289 396.48388672 C222.5649077 388.03471908 222.04907317 379.61682173 221.11328125 371.203125 C222.12261719 370.83960938 222.12261719 370.83960938 223.15234375 370.46875 C226.77984986 368.91820649 230.10857745 366.97150364 233.48828125 364.953125 C234.22159668 364.51838867 234.95491211 364.08365234 235.71044922 363.63574219 C244.89876759 358.17035903 254.01856488 352.59094585 263.14160156 347.01757812 C267.96228707 344.07415595 272.78802939 341.13905289 277.61328125 338.203125 C279.52083946 337.04167673 281.42839153 335.88021837 283.3359375 334.71875 C287.25883687 332.3307242 291.18352199 329.94566674 295.109375 327.5625 C306.15903956 320.85168061 317.17452737 314.09342861 328.11328125 307.203125 C324.94434702 306.18525959 322.90998897 306.255031 319.69747925 307.0632019 C318.81979889 307.27915009 317.94211853 307.49509827 317.0378418 307.71759033 C315.60541138 308.08530548 315.60541138 308.08530548 314.14404297 308.46044922 C313.13230011 308.71228973 312.12055725 308.96413025 311.07815552 309.22360229 C307.73075449 310.05929574 304.38691084 310.90839348 301.04296875 311.7578125 C298.72196019 312.34052567 296.40075993 312.92247577 294.07937622 313.50369263 C289.21406728 314.72384232 284.35034493 315.95006207 279.48779297 317.18115234 C273.24389065 318.76193093 266.99748961 320.33253476 260.75004387 321.89924431 C254.80518073 323.39043917 248.86149797 324.88631128 242.91796875 326.3828125 C241.77778164 326.66955715 240.63759453 326.9563018 239.46285629 327.25173569 C236.24915929 328.06092819 233.03631052 328.8733977 229.82373047 329.68701172 C228.38522736 330.04865417 228.38522736 330.04865417 226.91766357 330.41760254 C226.04562286 330.63919037 225.17358215 330.8607782 224.27511597 331.08908081 C223.51522306 331.28119078 222.75533016 331.47330074 221.9724102 331.67123222 C220.04324061 332.16150364 220.04324061 332.16150364 218.11328125 333.203125 C217.7258374 331.32765991 217.7258374 331.32765991 217.33056641 329.41430664 C216.07672348 323.78272422 214.37756171 318.32140414 212.63671875 312.82421875 C212.30660797 311.77154312 211.97649719 310.71886749 211.63638306 309.6342926 C210.59051344 306.30195901 209.53948375 302.97127967 208.48828125 299.640625 C207.77439687 297.36924831 207.06085175 295.09776496 206.34765625 292.82617188 C204.60678641 287.28391666 202.86168733 281.74300709 201.11328125 276.203125 C200.78328125 276.203125 200.45328125 276.203125 200.11328125 276.203125 Z M-327.578125 358.76953125 C-332.89980215 364.36455297 -336.88671875 369.29935528 -336.88671875 377.328125 C-334.70638835 383.5965749 -331.20253451 386.27974724 -325.51171875 389.328125 C-301.75340071 400.33107036 -274.52383855 399.72091251 -248.88671875 399.203125 C-249.50488467 395.69927301 -250.42032 392.54481139 -251.70703125 389.23046875 C-259.83676222 367.80029815 -265.73118798 345.92294654 -268.88671875 323.203125 C-285.81306457 323.203125 -315.45980234 347.21403345 -327.578125 358.76953125 Z " fill="#000000" transform="translate(470.88671875,300.03125)"/>
</svg>
