<?xml version="1.0" encoding="UTF-8"?>
<svg version="1.1" xmlns="http://www.w3.org/2000/svg" width="512" height="512">
<path d="M0 0 C1.46049774 0.00273422 1.46049774 0.00273422 2.95050049 0.00552368 C16.96633309 0.04973812 30.61220689 0.4423346 44.375 3.3125 C45.69636963 3.56990967 45.69636963 3.56990967 47.04443359 3.83251953 C78.6592867 10.04664576 110.15689192 22.3433262 136.375 41.3125 C136.9947168 41.75851563 137.61443359 42.20453125 138.25292969 42.6640625 C146.22252318 48.42651386 153.83414103 54.36036539 161.0078125 61.09765625 C163.03847153 62.99762931 165.11341118 64.78496449 167.25 66.5625 C209.90171481 103.9153256 235.80773914 162.46494135 240.375 218.3125 C240.5287906 221.53015768 240.58371949 224.74385023 240.61328125 227.96484375 C240.62302979 228.85458389 240.63277832 229.74432404 240.64282227 230.661026 C240.81599319 250.56258634 240.54312162 269.76308486 236.375 289.3125 C236.19308105 290.19615234 236.01116211 291.07980469 235.82373047 291.99023438 C227.11985417 333.21502828 207.05920768 371.51997531 178.375 402.3125 C177.16161781 403.70394666 175.95302197 405.09958639 174.75 406.5 C169.06159978 412.99360756 162.98521623 418.58778833 156.25 423.99609375 C154.3990034 425.48745378 152.56409151 426.99911746 150.75 428.53515625 C138.0583391 439.24374514 124.03942695 447.60569543 109.375 455.3125 C108.7243457 455.66022461 108.07369141 456.00794922 107.40332031 456.36621094 C86.2516402 467.53595443 61.92410854 474.61488018 38.375 478.3125 C37.22306152 478.49578857 36.07112305 478.67907715 34.88427734 478.86791992 C23.50486271 480.49241752 12.2315548 480.67064842 0.75 480.625 C-0.22466217 480.62284485 -1.19932434 480.6206897 -2.20352173 480.61846924 C-16.20577435 480.56874604 -29.88944848 480.28114299 -43.625 477.3125 C-44.61902832 477.10318848 -45.61305664 476.89387695 -46.63720703 476.67822266 C-110.61337091 462.92942881 -166.0448849 426.09672523 -202.1875 371.1875 C-224.65078496 336.07788443 -239.47804949 294.63428138 -239.86328125 252.66015625 C-239.87790405 251.32554604 -239.87790405 251.32554604 -239.89282227 249.963974 C-240.06599319 230.06241366 -239.79312162 210.86191514 -235.625 191.3125 C-235.44308105 190.42884766 -235.26116211 189.54519531 -235.07373047 188.63476562 C-226.36985417 147.40997172 -206.30920768 109.10502469 -177.625 78.3125 C-176.41161781 76.92105334 -175.20302197 75.52541361 -174 74.125 C-168.31159978 67.63139244 -162.23521623 62.03721167 -155.5 56.62890625 C-153.6490034 55.13754622 -151.81409151 53.62588254 -150 52.08984375 C-137.3083391 41.38125486 -123.28942695 33.01930457 -108.625 25.3125 C-107.9743457 24.96477539 -107.32369141 24.61705078 -106.65332031 24.25878906 C-85.5016402 13.08904557 -61.17410854 6.01011982 -37.625 2.3125 C-36.47306152 2.12921143 -35.32112305 1.94592285 -34.13427734 1.75708008 C-22.75466337 0.13255402 -11.48169574 -0.04456327 0 0 Z M-23.09375 123.30859375 C-31.48683601 134.29240274 -31.91138236 146.87838393 -31.96875 160.22265625 C-31.9910865 162.19201375 -32.01343368 164.16137119 -32.03643036 166.13072109 C-32.08146445 170.24245193 -32.10984291 174.35432936 -32.14068604 178.46618652 C-32.16690314 181.8831818 -32.19684375 185.30004069 -32.23693848 188.71690369 C-32.26607568 191.26870656 -32.28643072 193.82062753 -32.29724121 196.37257385 C-32.31736267 198.0909269 -32.31736267 198.0909269 -32.33789062 199.84399414 C-32.34518188 200.85450333 -32.35247314 201.86501251 -32.35998535 202.90614319 C-32.625 205.3125 -32.625 205.3125 -34.625 207.3125 C-37.10728455 207.57751465 -37.10728455 207.57751465 -40.27709961 207.59960938 C-41.46270981 207.61302368 -42.64832001 207.62643799 -43.86985779 207.64025879 C-45.80406334 207.64817444 -45.80406334 207.64817444 -47.77734375 207.65625 C-49.11578038 207.66989474 -50.45420581 207.68468247 -51.7926178 207.70056152 C-56.04917721 207.74883943 -60.30578349 207.78164553 -64.5625 207.8125 C-69.46718176 207.84834233 -74.37164778 207.89074001 -79.27612495 207.94844055 C-81.22722815 207.9682414 -83.17843655 207.97664163 -85.12962341 207.98474121 C-97.80290366 208.1247792 -109.39637517 208.94774287 -118.69921875 218.42578125 C-125.59224085 226.79278292 -127.28313899 233.77063825 -127.03515625 244.6171875 C-126.1662377 252.44572982 -122.38807471 258.50719508 -116.62890625 263.78125 C-105.64509726 272.17433601 -93.05911607 272.59888236 -79.71484375 272.65625 C-77.74548625 272.6785865 -75.77612881 272.70093368 -73.80677891 272.72393036 C-69.69504807 272.76896445 -65.58317064 272.79734291 -61.47131348 272.82818604 C-58.0543182 272.85440314 -54.63745931 272.88434375 -51.22059631 272.92443848 C-48.66879344 272.95357568 -46.11687247 272.97393072 -43.56492615 272.98474121 C-42.41935745 272.99815552 -41.27378876 273.01156982 -40.09350586 273.02539062 C-39.08299667 273.03268188 -38.07248749 273.03997314 -37.03135681 273.04748535 C-34.625 273.3125 -34.625 273.3125 -32.625 275.3125 C-32.35998535 277.79478455 -32.35998535 277.79478455 -32.33789062 280.96459961 C-32.32447632 282.15020981 -32.31106201 283.33582001 -32.29724121 284.55735779 C-32.28932556 286.49156334 -32.28932556 286.49156334 -32.28125 288.46484375 C-32.26760526 289.80328038 -32.25281753 291.14170581 -32.23693848 292.4801178 C-32.18866057 296.73667721 -32.15585447 300.99328349 -32.125 305.25 C-32.08915767 310.15468176 -32.04675999 315.05914778 -31.98905945 319.96362495 C-31.9692586 321.91472815 -31.96085837 323.86593655 -31.95275879 325.81712341 C-31.8127208 338.49040366 -30.98975713 350.08387517 -21.51171875 359.38671875 C-13.14471708 366.27974085 -6.16686175 367.97063899 4.6796875 367.72265625 C12.50822982 366.8537377 18.56969508 363.07557471 23.84375 357.31640625 C32.23683601 346.33259726 32.66138236 333.74661607 32.71875 320.40234375 C32.7410865 318.43298625 32.76343368 316.46362881 32.78643036 314.49427891 C32.83146445 310.38254807 32.85984291 306.27067064 32.89068604 302.15881348 C32.91690314 298.7418182 32.94684375 295.32495931 32.98693848 291.90809631 C33.01607568 289.35629344 33.03643072 286.80437247 33.04724121 284.25242615 C33.06065552 283.10685745 33.07406982 281.96128876 33.08789062 280.78100586 C33.09518188 279.77049667 33.10247314 278.75998749 33.10998535 277.71885681 C33.375 275.3125 33.375 275.3125 35.375 273.3125 C37.78135681 273.04748535 37.78135681 273.04748535 40.84350586 273.02539062 C41.98907455 273.01197632 43.13464325 272.99856201 44.31492615 272.98474121 C46.18351036 272.97682556 46.18351036 272.97682556 48.08984375 272.96875 C50.04725919 272.94639968 52.00467458 272.92403859 53.96208286 272.90106964 C57.41215522 272.86329492 60.86232134 272.83837986 64.3125 272.8125 C68.39442343 272.78162185 72.47623249 272.74822552 76.55799866 272.70056152 C79.10010009 272.67172895 81.64231361 272.651188 84.18455505 272.64025879 C97.0973977 272.49270687 109.29274381 271.1862886 119.1875 262.125 C126.13989913 254.43123129 128.17895614 247.28613495 127.79296875 236.9375 C126.8444123 228.71076742 123.63151342 221.81554084 117.375 216.3125 C106.64921622 208.15034819 95.09517781 208.02299593 82.02734375 207.96875 C80.68020996 207.95507856 79.33308711 207.94028705 77.98597717 207.92443848 C73.04022412 207.86860748 68.09436892 207.83266416 63.1484375 207.79681396 C58.93866906 207.76559796 54.72912243 207.72650243 50.51953316 207.67655945 C48.55303966 207.65651196 46.586437 207.64830693 44.61985779 207.64025879 C42.84144249 207.62013733 42.84144249 207.62013733 41.02709961 207.59960938 C39.98106064 207.59231812 38.93502167 207.58502686 37.85728455 207.57751465 C35.375 207.3125 35.375 207.3125 33.375 205.3125 C33.10998535 202.83021545 33.10998535 202.83021545 33.08789062 199.66040039 C33.07447632 198.47479019 33.06106201 197.28917999 33.04724121 196.06764221 C33.03932556 194.13343666 33.03932556 194.13343666 33.03125 192.16015625 C33.01760526 190.82171962 33.00281753 189.48329419 32.98693848 188.1448822 C32.93866057 183.88832279 32.90585447 179.63171651 32.875 175.375 C32.83915767 170.47031824 32.79675999 165.56585222 32.73905945 160.66137505 C32.7192586 158.71027185 32.71085837 156.75906345 32.70275879 154.80787659 C32.5627208 142.13459634 31.73975713 130.54112483 22.26171875 121.23828125 C13.89471708 114.34525915 6.91686175 112.65436101 -3.9296875 112.90234375 C-11.75822982 113.7712623 -17.81969508 117.54942529 -23.09375 123.30859375 Z " fill="#000000" transform="translate(255.625,15.6875)"/>
</svg>
