<?xml version="1.0" encoding="UTF-8"?>
<svg version="1.1" xmlns="http://www.w3.org/2000/svg" width="512" height="512">
<path d="M0 0 C1.6015625 0.94921875 1.6015625 0.94921875 3.375 2.3125 C4.3230249 3.02140381 5.2710498 3.73030762 6.24780273 4.46069336 C9.55112126 7.23339749 11.38854323 10.42776374 13.18359375 14.3046875 C13.51685165 14.99795135 13.85010956 15.69121521 14.19346619 16.40548706 C18.56365084 25.62043967 22.48754965 35.03734799 26.4375 44.4375 C27.29752537 46.47314144 28.15813587 48.50853576 29.01928711 50.54370117 C30.84806531 54.86639872 32.67460684 59.1900322 34.5 63.51416016 C38.96145542 74.07379194 43.46325282 84.61626499 47.96017456 95.16082764 C55.79481029 113.53222223 63.60174656 131.91504841 71.375 150.3125 C78.71425035 151.01666481 86.05370715 151.71865497 93.39324951 152.41976929 C96.13195912 152.68151511 98.87060191 152.94394539 101.60919189 153.2069397 C119.21497816 154.89735893 136.82408708 156.54226052 154.44020462 158.12165451 C160.30849964 158.6488591 166.17629137 159.18164591 172.04410362 159.71419334 C177.82178649 160.23777247 183.60023088 160.75170523 189.37935638 161.2590971 C193.02449681 161.5814403 196.66877554 161.9128281 200.3128891 162.24656105 C202.01325287 162.40038845 203.71396145 162.55045891 205.41501617 162.69644737 C228.53624448 164.6855665 228.53624448 164.6855665 237.375 173.3125 C243.62461864 181.50058596 244.11573098 189.27148003 243.375 199.3125 C241.84224788 205.3102257 239.00539715 209.22052113 234.375 213.3125 C233.33026875 214.39287825 232.2888884 215.4765021 231.25 216.5625 C228.39866664 219.41997847 225.39588253 221.97140547 222.25 224.5 C217.95939876 227.9501136 213.88833509 231.55022092 209.875 235.3125 C205.97940207 238.96154834 202.04163899 242.46949895 197.875 245.8125 C192.47063218 250.15177344 187.42544877 254.81646415 182.359375 259.5390625 C177.74146239 263.84355514 172.96738393 267.95562405 168.1640625 272.05078125 C166.96337959 273.07533092 165.76286379 274.10007646 164.5625 275.125 C163.95631836 275.64231689 163.35013672 276.15963379 162.72558594 276.69262695 C158.9842918 279.89752229 155.31384617 283.16459278 151.6875 286.5 C148.17113655 289.72805254 144.58847436 292.81335734 140.875 295.8125 C139.98296875 296.5446875 139.0909375 297.276875 138.171875 298.03125 C136.72661891 299.21006223 135.27930543 300.3868629 133.80664062 301.53125 C132.22456553 302.76453631 130.67438452 304.03838684 129.125 305.3125 C128.19171875 306.055 127.2584375 306.7975 126.296875 307.5625 C123.53915551 311.50850512 124.59433191 314.79913164 125.375 319.3125 C126.27218988 323.77263407 127.29535662 328.1991402 128.33422852 332.62817383 C128.64026644 333.94980553 128.94581507 335.27155062 129.25091553 336.59339905 C129.90515686 339.42421628 130.56236317 342.25432235 131.22180367 345.08393288 C132.26640336 349.5684093 133.30142382 354.05506328 134.33470154 358.54216003 C137.27302445 371.29624539 140.22106809 384.04805357 143.18530273 396.79614258 C144.82514298 403.84886646 146.4554925 410.90371677 148.07564873 417.96098918 C149.09796814 422.41173216 150.13165912 426.85962185 151.174101 431.30569232 C151.82277295 434.08497004 152.46029752 436.86671981 153.09484863 439.64925194 C153.52734836 441.53111558 153.97280391 443.40998739 154.41880798 445.28869629 C156.97660167 456.60691102 158.07669739 466.82812881 152.375 477.3125 C148.51966662 483.15057626 143.09740882 486.79595408 136.453125 488.9296875 C133.84454588 489.41021523 131.34012676 489.55911777 128.6875 489.625 C127.71425781 489.66238281 126.74101562 489.69976562 125.73828125 489.73828125 C116.3567887 488.55061262 108.03392821 482.35569259 100.0625 477.625 C98.77942303 476.86827564 97.49621733 476.11176951 96.21289062 475.35546875 C86.97427446 469.90001968 77.79779176 464.34411587 68.64047241 458.75357056 C59.77454465 453.34177929 50.84870947 448.04345978 41.875 442.8125 C29.65029148 435.68609126 17.53562085 428.39049415 5.45703125 421.01953125 C4.42658691 420.39643066 3.39614258 419.77333008 2.33447266 419.13134766 C0.39287227 417.93806908 -1.53047977 416.71446439 -3.43212891 415.45849609 C-4.29628418 414.89855957 -5.16043945 414.33862305 -6.05078125 413.76171875 C-6.79368408 413.26373779 -7.53658691 412.76575684 -8.30200195 412.25268555 C-11.49917893 410.95869411 -13.32503841 411.39696909 -16.625 412.3125 C-19.43458357 413.66403854 -19.43458357 413.66403854 -22.2109375 415.4609375 C-23.28988281 416.12673828 -24.36882812 416.79253906 -25.48046875 417.47851562 C-26.33777588 418.01665894 -26.33777588 418.01665894 -27.21240234 418.56567383 C-29.67725642 420.11251957 -32.15526363 421.63769915 -34.63287354 423.16400146 C-35.9467643 423.97342453 -37.26002711 424.7838677 -38.57269287 425.59527588 C-45.20301773 429.68792223 -51.901884 433.66144659 -58.61099243 437.62316895 C-69.38997483 443.98847695 -80.12707635 450.41641055 -90.8125 456.9375 C-101.81425106 463.64973686 -112.89742753 470.21128098 -124.03588867 476.69384766 C-131.19663586 480.86559144 -131.19663586 480.86559144 -138.25 485.21484375 C-145.2216246 489.5479021 -152.56792024 490.41432287 -160.625 489.3125 C-168.74015301 486.64342912 -174.43552841 482.78004936 -178.625 475.3125 C-179.24375 474.260625 -179.8625 473.20875 -180.5 472.125 C-183.49987835 461.95874558 -181.19173597 451.56033426 -178.79516602 441.49511719 C-178.49014205 440.16820041 -178.18638774 438.84099124 -177.88378906 437.51351929 C-177.2356233 434.68250953 -176.57868624 431.85374278 -175.91449165 429.02645111 C-174.86249223 424.54830972 -173.83058671 420.06567766 -172.80101013 415.58233643 C-171.16980807 408.49003574 -169.52511627 401.40094345 -167.87468141 394.31309628 C-164.91922305 381.61900505 -161.98594561 368.91978196 -159.05911011 356.219064 C-158.03332401 351.77027295 -157.00132958 347.3229825 -155.96400273 342.87686872 C-155.31848314 340.10636313 -154.67706828 337.3349177 -154.03655243 334.5632515 C-153.60012866 332.68088459 -153.15852197 330.79972164 -152.71672058 328.91860962 C-151.28999306 322.72713713 -149.92401993 316.67088363 -149.625 310.3125 C-151.39951878 307.85148856 -152.56231204 306.59348781 -154.875 304.8125 C-155.42422119 304.35093506 -155.97344238 303.88937012 -156.53930664 303.41381836 C-158.21286872 302.01729947 -159.91395871 300.66268545 -161.625 299.3125 C-163.43812807 297.83410327 -165.2506632 296.35497895 -167.0625 294.875 C-167.95453125 294.15699219 -168.8465625 293.43898438 -169.765625 292.69921875 C-174.20838254 288.99085146 -178.40874974 285.03093802 -182.640625 281.0859375 C-187.25853761 276.78144486 -192.03261607 272.66937595 -196.8359375 268.57421875 C-198.03662041 267.54966908 -199.23713621 266.52492354 -200.4375 265.5 C-201.04368164 264.98268311 -201.64986328 264.46536621 -202.27441406 263.93237305 C-206.0157082 260.72747771 -209.68615383 257.46040722 -213.3125 254.125 C-216.78636309 250.93513156 -220.32410025 247.89201106 -224 244.9375 C-228.2031489 241.54863635 -232.18699214 238.00007073 -236.125 234.3125 C-241.75330328 229.04339704 -247.62336409 224.15313302 -253.625 219.3125 C-261.15833958 213.1699308 -267.95666963 206.86213767 -268.99609375 196.67578125 C-269.2817605 187.27306588 -268.59630699 179.73469298 -261.9453125 172.48046875 C-256.88457616 167.85832956 -251.47637977 165.11770242 -244.63085938 164.29907227 C-244.00456383 164.22347108 -243.37826828 164.14786989 -242.73299408 164.06997776 C-231.07445745 162.72181897 -219.36899045 161.76224137 -207.67997169 160.71949458 C-204.04223783 160.39418787 -200.40486422 160.06490216 -196.76745605 159.73597717 C-189.1161842 159.04467223 -181.46456681 158.35725612 -173.81286621 157.67071533 C-162.27024951 156.6350169 -150.72793237 155.5959937 -139.18591452 154.55364329 C-134.87025555 154.16404408 -130.55442663 153.77640262 -126.23844814 153.39035976 C-124.20235149 153.20798602 -122.16633104 153.02478739 -120.13034058 152.8412323 C-117.65575539 152.61816663 -115.1810518 152.39640879 -112.70620728 152.17623901 C-110.57900201 151.9836695 -108.45243802 151.78378408 -106.32682133 151.57440662 C-104.67909472 151.41468085 -103.02930517 151.27314637 -101.37745571 151.16401958 C-98.49478818 150.91328246 -97.00890875 150.75572574 -95.07154846 148.51902771 C-94.59055946 147.33676353 -94.59055946 147.33676353 -94.09985352 146.13061523 C-93.71645813 145.22819595 -93.33306274 144.32577667 -92.93804932 143.39601135 C-92.5472821 142.39778854 -92.15651489 141.39956573 -91.75390625 140.37109375 C-91.31842468 139.32586044 -90.88294312 138.28062714 -90.43426514 137.20372009 C-88.99298796 133.72913885 -87.59094992 130.24001191 -86.1875 126.75 C-85.18492604 124.31661584 -84.17926205 121.88450271 -83.1706543 119.45361328 C-81.59324735 115.64978192 -80.01846633 111.84496943 -78.45674133 108.03466797 C-74.78224249 99.07161693 -71.02714672 90.14635316 -67.203125 81.24609375 C-66.93944059 80.63237097 -66.67575619 80.01864819 -66.40408134 79.38632774 C-65.0919354 76.33384783 -63.77802369 73.28213518 -62.46334839 70.23074341 C-60.51557779 65.70773484 -58.57455463 61.18185371 -56.63499451 56.65531921 C-55.71071263 54.50006169 -54.78476283 52.34551862 -53.85707092 50.19172668 C-51.63278109 45.02365998 -49.42541851 39.84979272 -47.26583195 34.65438652 C-46.20497643 32.10500234 -45.13581935 29.55913635 -44.06606102 27.01347733 C-43.31717346 25.22196573 -42.58005328 23.42554921 -41.84333801 21.6289978 C-37.63841712 11.64120905 -33.43168083 4.14638596 -23.4296875 -0.765625 C-16.65995266 -2.99077461 -6.4700049 -3.10308973 0 0 Z " fill="#000000" transform="translate(268.625,12.6875)"/>
</svg>
