<?xml version="1.0" encoding="UTF-8" standalone="no"?> <svg id="Layer_1" data-name="Layer 1" xmlns="http://www.w3.org/2000/svg" viewBox="0 0 48 48"><path d="M42,11.3,26,2.061a4,4,0,0,0-4,0L6,11.3a4,4,0,0,0-.835.643L24,22.815,42.835,11.941A4,4,0,0,0,42,11.3ZM26.236,12.714a4.913,4.913,0,0,1-4.461,0c-1.237-.714-1.25-1.874-.021-2.588a4.942,4.942,0,0,1,4.475,0A1.368,1.368,0,0,1,26.236,12.714Z"/><path d="M4.156,13.668A4,4,0,0,0,4,14.762V33.238A4,4,0,0,0,6,36.7l16,9.237a3.961,3.961,0,0,0,1,.407v-21.8Zm4.349,11.34a4.093,4.093,0,0,1-1.862-3.225c0-1.182.84-1.658,1.875-1.061a4.092,4.092,0,0,1,1.855,3.214C10.37,25.126,9.534,25.6,8.505,25.008ZM13,32.934a4.094,4.094,0,0,1-1.862-3.226c0-1.181.839-1.658,1.874-1.06a4.087,4.087,0,0,1,1.856,3.214C14.862,33.051,14.026,33.527,13,32.934Zm4.492,7.925a4.093,4.093,0,0,1-1.862-3.225c0-1.182.839-1.658,1.874-1.061a4.09,4.09,0,0,1,1.856,3.214C19.354,40.976,18.517,41.453,17.489,40.859Z"/><path d="M43.844,13.668,25,24.547v21.8a3.961,3.961,0,0,0,1-.407L42,36.7a4,4,0,0,0,2-3.464V14.762A4,4,0,0,0,43.844,13.668Zm-12.6,11.843c1.035-.6,1.871-.121,1.874,1.068A4.089,4.089,0,0,1,31.258,29.8c-1.028.594-1.871.121-1.875-1.06A4.105,4.105,0,0,1,31.246,25.511Zm.036,12.866c-1.028.593-1.871.121-1.874-1.061a4.1,4.1,0,0,1,1.862-3.225c1.035-.6,1.871-.121,1.875,1.068A4.1,4.1,0,0,1,31.282,38.377ZM38.712,21.2c1.035-.6,1.871-.121,1.875,1.068a4.092,4.092,0,0,1-1.862,3.218c-1.029.594-1.865.117-1.868-1.064A4.092,4.092,0,0,1,38.712,21.2Zm.037,12.866c-1.028.594-1.864.117-1.868-1.064a4.089,4.089,0,0,1,1.856-3.222c1.035-.6,1.871-.121,1.874,1.068A4.089,4.089,0,0,1,38.749,34.066Z"/></svg>