<?xml version="1.0" encoding="UTF-8"?>
<svg version="1.1" xmlns="http://www.w3.org/2000/svg" width="512" height="512">
<path d="M0 0 C1.25554687 -0.01933594 2.51109375 -0.03867188 3.8046875 -0.05859375 C14.67504629 0.71971666 24.08613484 6.32433559 33.25 11.75 C34.47300598 12.46315287 35.6966527 13.17520794 36.92089844 13.88623047 C39.43187637 15.34638671 41.93942374 16.81217829 44.44433594 18.28271484 C48.99605356 20.9521421 53.57202714 23.57900604 58.14746094 26.20751953 C68.44141525 32.12381793 78.69748564 38.1041062 88.94628906 44.09814453 C96.64524834 48.59277427 104.37968246 53.02349899 112.125 57.4375 C121.84330971 62.97589512 131.52904876 68.56667153 141.18310547 74.21655273 C148.52089078 78.5090049 155.88185652 82.75990859 163.25 87 C171.70140116 91.87202895 180.14609439 96.75521513 188.5625 101.6875 C189.48627441 102.2244751 190.41004883 102.7614502 191.36181641 103.31469727 C192.21050293 103.81412842 193.05918945 104.31355957 193.93359375 104.828125 C194.67407959 105.26157227 195.41456543 105.69501953 196.17749023 106.14160156 C198.0852164 107.41102747 199.57188481 108.76034386 201.125 110.4375 C199.85050183 114.26099452 198.64423536 114.5737998 195.18359375 116.51953125 C194.13751953 117.11443359 193.09144531 117.70933594 192.01367188 118.32226562 C190.87478516 118.95841797 189.73589844 119.59457031 188.5625 120.25 C187.37636706 120.92149187 186.19082739 121.59403267 185.00585938 122.26757812 C182.5666656 123.65362675 180.12548046 125.03606985 177.68310547 126.41650391 C172.46682741 129.37160406 167.29680947 132.40546543 162.125 135.4375 C150.57879474 142.18635841 138.995965 148.87090166 127.40722656 155.54638672 C121.97840058 158.67430148 116.55180719 161.80608448 111.125 164.9375 C108.95834417 166.18751879 106.7916775 167.43751878 104.625 168.6875 C103.5525 169.30625 102.48 169.925 101.375 170.5625 C65.625 191.1875 65.625 191.1875 62.37329102 193.06347656 C60.21231012 194.31020256 58.05134002 195.55694727 55.89038086 196.80371094 C50.38681149 199.97895883 44.88303968 203.15385495 39.37890625 206.328125 C38.26862061 206.96886963 37.15833496 207.60961426 36.0144043 208.26977539 C33.82061241 209.53434098 31.62549027 210.79660201 29.42895508 212.05639648 C24.39783885 214.94602173 19.39388382 217.86537942 14.4453125 220.89453125 C13.57318115 221.42143555 12.7010498 221.94833984 11.80249023 222.49121094 C10.19115471 223.46758642 8.58837046 224.45827699 6.99633789 225.46582031 C6.28985107 225.89088867 5.58336426 226.31595703 4.85546875 226.75390625 C4.25114014 227.12974854 3.64681152 227.50559082 3.02416992 227.89282227 C-0.50066811 228.90373802 -3.26557807 226.75429149 -6.35668945 225.14746094 C-7.22511475 224.66051758 -8.09354004 224.17357422 -8.98828125 223.671875 C-9.97626709 223.11894775 -10.96425293 222.56602051 -11.98217773 221.99633789 C-13.56881226 221.10096313 -13.56881226 221.10096313 -15.1875 220.1875 C-16.29617432 219.56415771 -17.40484863 218.94081543 -18.54711914 218.29858398 C-28.01440877 212.95876695 -37.40799965 207.49626975 -46.78515625 202 C-53.09070419 198.3053669 -59.41794436 194.64897319 -65.75 191 C-67.37023071 190.06619507 -67.37023071 190.06619507 -69.02319336 189.11352539 C-71.21296334 187.85173174 -73.40282355 186.59009466 -75.59277344 185.32861328 C-81.02159942 182.20069852 -86.44819281 179.06891552 -91.875 175.9375 C-94.04165583 174.68748121 -96.2083225 173.43748122 -98.375 172.1875 C-111.375 164.6875 -124.375 157.1875 -137.375 149.6875 C-138.4482251 149.06834717 -139.5214502 148.44919434 -140.62719727 147.8112793 C-142.78659395 146.5654423 -144.94593669 145.31951182 -147.10522461 144.07348633 C-153.76437753 140.23099074 -160.42555549 136.39203573 -167.08837891 132.5559082 C-170.351804 130.67440732 -173.61158984 128.78672087 -176.87109375 126.8984375 C-180.65926867 124.70601392 -184.46149176 122.54393254 -188.28515625 120.4140625 C-189.09073975 119.95878174 -189.89632324 119.50350098 -190.72631836 119.03442383 C-192.19560045 118.20441276 -193.67134153 117.38568787 -195.15454102 116.58081055 C-197.0703125 115.48828125 -197.0703125 115.48828125 -199.875 113.4375 C-199.875 112.1175 -199.875 110.7975 -199.875 109.4375 C-198.06103516 107.72875977 -198.06103516 107.72875977 -195.5390625 106.06640625 C-194.62157227 105.46070801 -193.70408203 104.85500977 -192.75878906 104.23095703 C-188.32745373 101.47506562 -183.81969047 98.89354758 -179.25 96.375 C-177.20882408 95.23582755 -175.16848498 94.0951546 -173.12890625 92.953125 C-171.57260498 92.08204102 -171.57260498 92.08204102 -169.98486328 91.19335938 C-165.02103002 88.39073033 -160.10414889 85.50936301 -155.1875 82.625 C-146.44909708 77.50478605 -137.67485095 72.45103101 -128.875 67.4375 C-119.15365901 61.89781101 -109.46604908 56.30374937 -99.80810547 50.65405273 C-89.29152145 44.50414108 -78.73585599 38.42258178 -68.17919922 32.34179688 C-63.73863783 29.78258461 -59.30062422 27.21897215 -54.86279297 24.6550293 C-51.61212375 22.77864434 -48.35886247 20.90681219 -45.10546875 19.03515625 C-41.03232493 16.68985963 -36.97380577 14.32196192 -32.92578125 11.93359375 C-31.98710205 11.38469482 -31.04842285 10.8357959 -30.08129883 10.27026367 C-28.34830662 9.25673291 -26.61980737 8.23545594 -24.8972168 7.2043457 C-16.9508748 2.58216741 -9.22201664 0.00942946 0 0 Z M-30.25 98.0625 C-33.00367493 102.08710182 -33.28527941 104.51414708 -32.875 109.4375 C-29.10517399 116.68716539 -24.3346716 120.12165496 -16.8125 122.6875 C-2.8503361 127.07201479 10.28888701 126.26125047 23.625 120.0625 C28.1224498 117.6730042 30.833113 115.021274 33.125 110.4375 C33.55998816 103.80393059 32.84457856 100.58026241 28.41796875 95.46484375 C25.66291107 93.02894096 23.13339567 92.01283113 19.6875 90.75 C18.57503906 90.33363281 17.46257812 89.91726562 16.31640625 89.48828125 C1.6869305 84.67147712 -19.3394835 86.00350808 -30.25 98.0625 Z " fill="#FFFFFF" transform="translate(255.875,15.5625)"/>
<path d="M0 0 C7.15904752 3.45752755 14.03568747 7.26362236 20.875 11.3125 C29.84077442 16.58173547 38.83959278 21.78879283 47.875 26.9375 C50.24237737 28.2874277 52.60953624 29.63773801 54.9765625 30.98828125 C55.8537645 31.48877235 55.8537645 31.48877235 56.74868774 31.99937439 C72.1586733 40.79607332 87.50463779 49.7026627 102.82128906 58.66064453 C110.52024834 63.15527427 118.25468246 67.58599899 126 72 C135.71089083 77.53416715 145.38898048 83.12110381 155.03613281 88.76586914 C163.64448205 93.80081932 172.27973828 98.78812122 180.92236328 103.76391602 C182.89077502 104.8975341 184.84799242 106.05094114 186.7903862 107.22858334 C189.91041728 109.0709438 189.91041728 109.0709438 193.16456985 110.08726597 C196.98685677 111.60037609 199.21566664 112.9444892 202 116 C204.3513771 123.01773295 203.51126319 130.98716765 203.36230469 138.27514648 C203.35891889 140.58156659 203.36082159 142.88799964 203.36761475 145.19441223 C203.37105802 151.45113062 203.300513 157.70508851 203.21672726 163.96116519 C203.1417102 170.50066551 203.13466254 177.04022919 203.12042236 183.58009338 C203.08936111 194.55510318 203.01241072 205.52914583 202.90527344 216.50366211 C202.79505701 227.80536857 202.71015055 239.10679988 202.65917969 250.40893555 C202.65602701 251.10605345 202.65287432 251.80317135 202.64962611 252.52141403 C202.6339652 256.01879054 202.61880081 259.51616899 202.60388327 263.01354873 C202.47956262 292.00969052 202.2673822 321.00483172 202 350 C200.39719061 349.53398007 198.79551847 349.06404755 197.19433594 348.59246826 C195.85625885 348.20055864 195.85625885 348.20055864 194.4911499 347.80073166 C191.50571934 346.8411231 188.94449629 345.55248393 186.25 343.953125 C185.24324219 343.36337891 184.23648438 342.77363281 183.19921875 342.16601562 C182.14347656 341.53373047 181.08773437 340.90144531 180 340.25 C178.27714035 339.23695852 176.55427081 338.22393339 174.83081055 337.21191406 C173.05459191 336.16722383 171.28104138 335.11811477 169.5078125 334.06835938 C164.03215363 330.83239919 158.51369428 327.6705417 153 324.5 C150.83313801 323.25033862 148.6664718 322.00033771 146.5 320.75 C145.4275 320.13125 144.355 319.5125 143.25 318.875 C122.66666667 307 102.08333333 295.125 81.5 283.25 C79.8907666 282.3216333 79.8907666 282.3216333 78.24902344 281.37451172 C76.08552524 280.12628966 73.92211357 278.87791761 71.75878906 277.62939453 C66.29434983 274.47594744 60.82836355 271.32523904 55.359375 268.1796875 C49.94899242 265.06733376 44.54511803 261.94390304 39.14404297 258.81542969 C36.00906802 257.00523605 32.86617278 255.20937177 29.72265625 253.4140625 C27.75227225 252.27661645 25.78220508 251.13862134 23.8125 250 C22.92208008 249.49645996 22.03166016 248.99291992 21.11425781 248.47412109 C9.61720381 241.78117739 2.42836261 232.90268901 -1 220 C-2.12092797 215.52325983 -2.14270193 211.13492771 -2.13371277 206.54934692 C-2.13597833 205.70063487 -2.13824388 204.85192281 -2.14057809 203.97749221 C-2.14690592 201.1348833 -2.14608951 198.29232221 -2.14526367 195.44970703 C-2.14825591 193.4110915 -2.15165859 191.37247653 -2.15544128 189.3338623 C-2.1642786 183.79667186 -2.16661928 178.25949687 -2.16725707 172.72230005 C-2.16820659 168.09999677 -2.17188536 163.47769709 -2.17542917 158.8553952 C-2.1835726 147.95030718 -2.18601349 137.04522742 -2.18530273 126.14013672 C-2.18470186 114.89017427 -2.19525595 103.64025977 -2.2110464 92.39030945 C-2.22412042 82.73157816 -2.22948669 73.07286254 -2.22884732 63.41412246 C-2.22859231 57.64540985 -2.23144547 51.87673984 -2.24202538 46.10803604 C-2.25170407 40.68259292 -2.25178706 35.25723316 -2.24450874 29.83178711 C-2.24346264 27.84160109 -2.24582729 25.85140988 -2.2518692 23.86123276 C-2.25958842 21.14226392 -2.25494473 18.42358301 -2.24723816 15.70462036 C-2.25238172 14.9191036 -2.25752529 14.13358685 -2.26282471 13.32426655 C-2.23278028 8.51981768 -1.51999962 4.56357812 0 0 Z M29 79 C25.82164335 85.21224255 26.91961553 91.56159798 28.94140625 97.99609375 C33.34604824 109.40745997 39.91512602 117.35119746 50.5 123.4375 C54.16873146 124.26296458 57.41236228 124.17836636 61 123 C64.83424475 119.26406922 66.1479763 115.83591765 66.3125 110.5625 C66.1340341 99.40026888 61.32625667 90.21549435 54 82 C48.6506939 77.16430481 43.42593845 73.41268328 35.96484375 73.62109375 C32.48508901 74.29213989 31.04065414 76.23911498 29 79 Z M77.25 162.625 C73.76826069 169.24030469 74.98225455 176.05258057 76.9140625 183 C78.64057967 187.76965893 81.12031152 191.84556942 84 196 C84.61875 196.9075 85.2375 197.815 85.875 198.75 C91.15163167 204.33702177 96.29431976 207.98941899 104 209 C108.52088678 208.07527316 110.44581263 205.74006008 113 202 C115.7796157 193.66115289 113.43866037 185.76995234 110 178 C104.91146688 168.95658164 98.03528927 161.28076765 88 158 C83.06616856 158 80.81571832 159.31397585 77.25 162.625 Z M125 248 C121.56645109 255.06631397 123.26911123 262.3948586 125.625 269.625 C129.42566766 279.22236943 136.67408952 287.10713201 145.4375 292.5 C149.42351371 293.27775877 153.09288799 293.14657306 157 292 C160.09077575 289.06376304 161.74520918 286.39601367 162.203125 282.08984375 C162.47792048 269.47215125 157.14153009 259.09459641 148.5625 250.0625 C143.70756499 245.45966379 140.08671723 243.4257541 133.375 242.5 C128.99881945 243.14832304 127.68480794 244.54810408 125 248 Z " fill="#FFFFFF" transform="translate(44,145)"/>
<path d="M0 0 C3.61459309 3.61459309 3.1171149 8.12130549 3.1430676 13.03813136 C3.14220112 13.82538108 3.14133463 14.6126308 3.14044189 15.42373657 C3.14341302 16.26962636 3.14638414 17.11551615 3.1494453 17.98703897 C3.15811388 20.82030816 3.159639 23.65353501 3.16113281 26.48681641 C3.16576235 28.51894216 3.17078719 30.55106704 3.17617798 32.58319092 C3.18929232 38.10411818 3.19574525 43.62503328 3.20018864 49.14597368 C3.20312137 52.59729074 3.2072266 56.0486045 3.21169281 59.49991989 C3.22536619 70.30411979 3.23503321 81.1083121 3.2388947 91.91252005 C3.24337295 104.37315942 3.26091076 116.83368897 3.2898953 129.29429495 C3.31153467 138.93270676 3.32160022 148.57108772 3.32293582 158.20952356 C3.32398237 163.96273992 3.32985824 169.71585301 3.34775543 175.46904373 C3.3642747 180.88467794 3.36637286 186.30013169 3.35761642 191.71578217 C3.35684807 193.69784149 3.36116198 195.67991066 3.37107468 197.66194534 C3.45264241 214.99509945 1.64289198 228.31942365 -10.40429688 241.49633789 C-14.46933137 245.41723036 -18.99891129 248.00630545 -23.9375 250.6875 C-26.07428884 251.89050051 -28.2110051 253.09362996 -30.34765625 254.296875 C-31.44480957 254.90595703 -32.54196289 255.51503906 -33.67236328 256.14257812 C-39.10978109 259.17763863 -44.4880636 262.31403018 -49.875 265.4375 C-52.05947106 266.69735139 -54.24436906 267.95646279 -56.4296875 269.21484375 C-62.95486238 272.97355378 -69.47766725 276.73636081 -76 280.5 C-82.52233275 284.26363919 -89.04513762 288.02644622 -95.5703125 291.78515625 C-106.06232094 297.83055159 -116.54481676 303.89110219 -127 310 C-136.35265963 315.4647002 -145.72073049 320.90195011 -155.11328125 326.29785156 C-160.18862492 329.21480328 -165.25613668 332.14259789 -170.29348755 335.12464905 C-172.05586521 336.16723454 -173.82074524 337.20545126 -175.58642578 338.24243164 C-177.79557722 339.54166296 -180.00002869 340.84893338 -182.19873047 342.16577148 C-183.20564941 342.75559814 -184.21256836 343.3454248 -185.25 343.953125 C-186.12140625 344.47036133 -186.9928125 344.98759766 -187.890625 345.52050781 C-192.06051222 347.5046093 -196.57689364 348.67306809 -201 350 C-201 272.78 -201 195.56 -201 116 C-191.76 110.72 -182.52 105.44 -173 100 C-163.98904238 94.7514822 -163.98904238 94.7514822 -154.984375 89.4921875 C-145.44177067 83.91570844 -135.85942207 78.40788509 -126.28222656 72.89111328 C-120.85340058 69.76319852 -115.42680719 66.63141552 -110 63.5 C-107.83334417 62.24998121 -105.6666775 60.99998122 -103.5 59.75 C-102.4275 59.13125 -101.355 58.5125 -100.25 57.875 C-64.5 37.25 -64.5 37.25 -61.24829102 35.37402344 C-59.08731012 34.12729744 -56.92634002 32.88055273 -54.76538086 31.63378906 C-49.26181149 28.45854117 -43.75803968 25.28364505 -38.25390625 22.109375 C-25.49584057 14.75123049 -12.74274357 7.38465019 0 0 Z M-64.3984375 90.6484375 C-69.57593763 98.25052306 -73.11052081 105.72025002 -73.25 114.9375 C-73.27578125 115.95714844 -73.3015625 116.97679687 -73.328125 118.02734375 C-72.86449391 122.22762065 -71.14682216 124.8122199 -68.25 127.8125 C-64.81723995 129.62423447 -62.86533596 129.56109716 -59 129 C-47.08479165 123.7703346 -40.96712258 114.6677376 -36 103 C-34.91987971 99.68806489 -34.80259475 96.53813638 -34.75 93.0625 C-34.71132813 91.53302734 -34.71132813 91.53302734 -34.671875 89.97265625 C-35.13550609 85.77237935 -36.85317784 83.1877801 -39.75 80.1875 C-49.03953986 75.2846873 -58.72445551 83.68369183 -64.3984375 90.6484375 Z M-145 138 C-150.42276207 146.82046958 -154.03542255 155.51634665 -153 166 C-151.4823474 170.09766202 -149.97683459 173.0115827 -146 175 C-140.02699984 175.80405771 -135.86536231 174.29318978 -131 171 C-121.45416015 163.1979388 -115.6972597 153.22686114 -114 141 C-113.87863882 135.64392672 -114.60882582 131.30418261 -118 127 C-128.21712609 120.18858261 -138.80432996 130.05176991 -145 138 Z M-61.66796875 179.4765625 C-69.42127349 187.86623564 -73.713347 198.26970681 -73.28125 209.73828125 C-72.86450789 213.08958238 -71.99393797 215.27495144 -70 218 C-67.28148787 220.07124733 -65.38030347 221.01559665 -61.92578125 220.9765625 C-53.25631897 219.61486685 -47.25572781 214.04959949 -42.1875 207.1875 C-36.34732974 198.23076557 -32.77926068 188.88053069 -34.6875 178.125 C-36.08550806 174.79640938 -37.07919805 173.10946807 -40 171 C-48.89359177 167.96809372 -55.55305238 173.67161885 -61.66796875 179.4765625 Z M-138.5 222.3125 C-147.42092538 230.69229473 -152.28999784 241.62197449 -153.3125 253.6875 C-152.88875661 258.17917994 -151.30637725 261.19595523 -148.6875 264.8125 C-146.07558488 266.65051435 -144.19400167 266.87947164 -141 267 C-131.65340624 264.81912812 -124.67131657 258.07345655 -119.5625 250.125 C-115.45834654 242.63753589 -113.13121873 234.54301581 -114 226 C-115.40281655 222.45955822 -116.83425542 219.22774618 -120 217 C-127.22962769 214.64616773 -132.94645224 217.85819147 -138.5 222.3125 Z " fill="#FFFFFF" transform="translate(467,145)"/>
</svg>
