<svg width="512" height="512" viewBox="0 0 512 512" fill="none" xmlns="http://www.w3.org/2000/svg">
<path d="M325.312 43.625C338.881 26.1941 364.13 22.8714 381.562 36.4375C398.995 50.0074 402.007 75.2552 388.438 92.6875L388.125 93V93.3125L373.75 110.812C363.861 122.987 353.693 133.926 344.062 141.438L335.312 148.625L326.562 155.5L299.375 176.125L290.625 183C285.057 187.255 279.45 191.682 274.062 196.125L265.312 203.312L256.875 210.5C251.761 214.718 246.698 219.1 241.875 223.625L233.75 231.125L225.625 238.938C219.801 244.402 213.412 249.228 207.188 254.25C208.489 256.378 210.036 257.866 211.562 258.938L220.625 265.5L230 272.062C236.788 276.826 243.542 281.608 250 286.75L258.75 293.938L267.5 300.812C275.273 307.004 282.541 313.929 289.062 321.438L296.25 329.875L303.75 338.312C307.805 342.982 312.119 347.531 316.562 351.75L332.812 367.375C338.372 372.647 343.913 377.936 349.375 383.312L357.5 391.125L365.625 399.25C367.973 401.559 369.795 403.226 370.938 404.25L371.25 404.562L372.5 405.5H372.812L378.438 409.25L384.375 413L388.438 418.312C402.007 435.745 398.995 460.993 381.562 474.562C367.708 485.345 349.223 485.234 335.312 476.125V476.438L329.688 473L329.375 472.688L326.562 470.812C320.618 466.95 314.035 460.714 309.375 456.125L301.25 448.312L293.438 440.5C288.293 435.435 283.049 430.153 277.812 425.188L269.688 417.688L261.562 409.875C255.213 403.852 249.195 397.441 243.438 390.812L235.938 382.375L228.75 373.938C225.422 370.106 221.754 366.452 217.812 363.312L209.062 356.438L200 349.562C194.794 345.417 189.558 341.231 184.062 337.375L174.688 330.812L165.625 324.562C154.817 316.98 145.891 307.282 139.062 296.125L132.812 286.125L126.875 276.125C121.68 267.624 116.689 254.974 119.062 239.875C121.494 224.458 130.479 213.667 138.75 207.062L147.5 200.188L156.25 193C161.227 189.024 165.996 184.838 170.625 180.5L179.062 172.688L187.188 165.188C193.247 159.503 199.52 153.917 205.938 148.625L214.375 141.438L223.125 134.25C229.244 129.205 235.559 124.39 241.875 119.562L250.938 112.688L259.688 105.812C265.514 101.36 271.411 96.8804 277.188 92.375L286.25 85.5L295 78.625C297.18 76.9244 302.534 71.6058 311.562 60.5L325.312 43.625ZM340.312 455.5L340.938 455.188L340.312 455.5Z" fill="black"/>
</svg>
