<svg width="512" height="512" viewBox="0 0 512 512" fill="none" xmlns="http://www.w3.org/2000/svg">
<path d="M186.688 43.625C173.119 26.1941 147.87 22.8714 130.438 36.4375C113.005 50.0074 109.993 75.2552 123.562 92.6875L123.875 93V93.3125L138.25 110.812C148.139 122.987 158.307 133.926 167.938 141.438L176.688 148.625L185.438 155.5L212.625 176.125L221.375 183C226.943 187.255 232.55 191.682 237.938 196.125L246.688 203.312L255.125 210.5C260.239 214.718 265.302 219.1 270.125 223.625L278.25 231.125L286.375 238.938C292.199 244.402 298.588 249.228 304.812 254.25C303.511 256.378 301.964 257.866 300.438 258.938L291.375 265.5L282 272.062C275.212 276.826 268.458 281.608 262 286.75L253.25 293.938L244.5 300.812C236.727 307.004 229.459 313.929 222.938 321.438L215.75 329.875L208.25 338.312C204.195 342.982 199.881 347.531 195.438 351.75L179.188 367.375C173.628 372.647 168.087 377.936 162.625 383.312L154.5 391.125L146.375 399.25C144.027 401.559 142.205 403.226 141.062 404.25L140.75 404.562L139.5 405.5H139.188L133.562 409.25L127.625 413L123.562 418.312C109.993 435.745 113.005 460.993 130.438 474.562C144.292 485.345 162.777 485.234 176.688 476.125V476.438L182.312 473L182.625 472.688L185.438 470.812C191.382 466.95 197.965 460.714 202.625 456.125L210.75 448.312L218.562 440.5C223.707 435.435 228.951 430.153 234.188 425.188L242.312 417.688L250.438 409.875C256.787 403.852 262.805 397.441 268.562 390.812L276.062 382.375L283.25 373.938C286.578 370.106 290.246 366.452 294.188 363.312L302.938 356.438L312 349.562C317.206 345.417 322.442 341.231 327.938 337.375L337.312 330.812L346.375 324.562C357.183 316.98 366.109 307.282 372.938 296.125L379.188 286.125L385.125 276.125C390.32 267.624 395.311 254.974 392.938 239.875C390.506 224.458 381.521 213.667 373.25 207.062L364.5 200.188L355.75 193C350.773 189.024 346.004 184.838 341.375 180.5L332.938 172.688L324.812 165.188C318.753 159.503 312.48 153.917 306.062 148.625L297.625 141.438L288.875 134.25C282.756 129.205 276.441 124.39 270.125 119.562L261.062 112.688L252.312 105.812C246.486 101.36 240.589 96.8804 234.812 92.375L225.75 85.5L217 78.625C214.82 76.9244 209.466 71.6058 200.438 60.5L186.688 43.625ZM171.688 455.5L171.062 455.188L171.688 455.5Z" fill="white"/>
</svg>
