<svg width="200" height="200" viewBox="0 0 200 200" fill="none" xmlns="http://www.w3.org/2000/svg">
<path d="M126 54.9999C126.862 55.5078 127.725 56.0157 128.613 56.5389C140.752 64.3121 148.26 74.6642 151.461 88.5936C153.851 103.696 151.662 117.284 143 130C142.34 130.99 141.68 131.98 141 133C140.34 133 139.68 133 139 133C139 133.66 139 134.32 139 135C138.34 135 137.68 135 137 135C137 135.66 137 136.32 137 137C136.34 137 135.68 137 135 137C135 137.66 135 138.32 135 139C125.435 147.086 114.432 150.177 102.188 150.187C101.034 150.206 101.034 150.206 99.8574 150.224C91.5965 150.245 85.198 148.379 77.8125 144.625C76.6433 144.04 75.4742 143.454 74.2696 142.851C71.2092 141.118 68.5929 139.373 66 137C66 136.34 66 135.68 66 135C65.34 135 64.68 135 64 135C60 129.588 60 129.588 60 127C59.34 127 58.68 127 58 127C57.3669 125.817 56.7441 124.628 56.125 123.437C55.777 122.776 55.4289 122.115 55.0703 121.433C49.4728 108.706 49.9392 93.8475 54.25 80.8124C59.3822 68.3448 68.921 58.8096 80.8477 52.8593C94.3812 47.4557 113.49 47.164 126 54.9999Z" fill="white"/>
<path d="M28.1873 69.3127C29.5795 69.653 29.5795 69.653 30.9998 70.0002C32.3009 74.4238 31.4823 76.709 29.9998 81.0002C26.9523 94.3971 27.2946 106.804 30.9998 120C31.2512 120.944 31.5026 121.887 31.7615 122.86C33.023 127.372 34.4696 131.024 36.9998 135C36.9998 135.99 36.9998 136.98 36.9998 138C37.6598 138 38.3198 138 38.9998 138C39.6598 139.98 40.3198 141.96 40.9998 144C41.6598 144 42.3198 144 42.9998 144C44.1167 145.353 45.169 146.759 46.1873 148.188C49.3947 152.473 52.5926 155.032 56.9998 158C56.9998 158.66 56.9998 159.32 56.9998 160C57.7036 160.261 58.4075 160.521 59.1326 160.789C62.2187 162.093 64.981 163.689 67.8748 165.375C83.8228 173.891 103.467 176.395 121.035 171.35C124.731 170.143 128.325 168.763 131.863 167.152C136.092 165.24 138.461 164.782 143 166C144.329 170.35 144.329 170.35 143 172.977C140.21 175.799 136.982 176.851 133.312 178.125C132.63 178.377 131.947 178.628 131.244 178.887C109.913 186.581 86.6962 185.715 66.0897 176.254C60.4798 173.557 55.0281 170.692 49.9998 167C49.9998 166.34 49.9998 165.68 49.9998 165C49.4481 164.773 48.8964 164.546 48.3279 164.313C45.3129 162.613 43.1875 160.452 40.7498 158C39.8578 157.113 38.9658 156.226 38.0467 155.313C35.9998 153 35.9998 153 35.9998 151C35.3398 151 34.6798 151 33.9998 151C33.0098 148.03 33.0098 148.03 31.9998 145C31.3398 145 30.6798 145 29.9998 145C18.3536 122.414 14.0562 100.01 20.8319 74.9846C22.5387 70.6232 23.3455 68.838 28.1873 69.3127Z" fill="white"/>
<path d="M141.242 25.5117C143.968 27.0851 143.968 27.0851 147 28C147 28.66 147 29.32 147 30C147.763 30.2887 148.526 30.5775 149.312 30.875C152 32 152 32 155 34C155 34.66 155 35.32 155 36C155.572 36.2475 156.145 36.495 156.734 36.75C159.35 38.1931 161.148 39.8821 163.25 42C163.956 42.7012 164.663 43.4025 165.391 44.125C167 46 167 46 167 48C167.66 48 168.32 48 169 48C180.519 63.3842 185.403 80.5389 185.438 99.5625C185.441 100.557 185.441 100.557 185.444 101.571C185.438 111.915 184.891 121.687 180 131C177 133 177 133 174.938 132.75C173 132 173 132 171 130C171.248 125.456 172.111 121.667 173.562 117.375C178.464 99.9294 175.321 80.3814 166.812 64.6875C166.115 63.4595 165.414 62.2341 164.707 61.0117C163 58 163 58 162 55C161.34 55 160.68 55 160 55C158.59 53.5312 158.59 53.5312 156.938 51.5C144.058 36.4742 127.702 28.0079 108 26C95.2789 25.2598 84.1976 27.0978 72.5183 32.0552C68.6068 33.6589 66.0705 34.3568 62 33C61.625 29.75 61.625 29.75 62 26C80.8462 7.67733 120.603 14.33 141.242 25.5117Z" fill="white"/>
<path d="M45.6873 22.0001C46.7804 22.6601 47.8735 23.3201 48.9998 24.0001C48.9998 24.6601 48.9998 25.3201 48.9998 26.0001C49.6598 26.0001 50.3198 26.0001 50.9998 26.0001C50.9998 26.6601 50.9998 27.3201 50.9998 28.0001C51.6598 28.0001 52.3198 28.0001 52.9998 28.0001C56.1651 33.9775 58.2103 39.1911 56.9998 46.0001C55.8938 49.132 54.5533 52.0665 52.9998 55.0001C52.3398 55.0001 51.6798 55.0001 50.9998 55.0001C50.9998 55.6601 50.9998 56.3201 50.9998 57.0001C50.3398 57.0001 49.6798 57.0001 48.9998 57.0001C48.9998 57.6601 48.9998 58.3201 48.9998 59.0001C42.5964 62.8663 37.4656 64.0573 29.9998 63.0001C23.821 61.2028 19.4871 57.3422 15.9998 52.0001C13.2297 46.1943 12.8791 39.9192 14.6521 33.7189C17.2762 27.8624 21.6127 23.6162 27.3904 20.8595C33.5218 18.8402 39.913 19.1027 45.6873 22.0001Z" fill="white"/>
<path d="M175 140C175 140.66 175 141.32 175 142C175.66 142 176.32 142 177 142C180.391 147.829 182.018 152.234 181 159C179.035 164.675 175.372 168.314 170 171C157.857 172.189 157.857 172.189 152.937 169.063C149.241 165.799 147.197 161.743 146 157C145.708 151.83 147.214 147.323 150 143C157.593 135.109 165.486 135.994 175 140Z" fill="white"/>
</svg>
