<?xml version="1.0" encoding="UTF-8"?>
<svg version="1.1" xmlns="http://www.w3.org/2000/svg" width="200" height="200">
<path d="M0 0 C0.86238281 0.50789063 1.72476563 1.01578125 2.61328125 1.5390625 C14.75195774 9.31223621 22.25998901 19.66434779 25.4609375 33.59375 C27.85094094 48.69580072 25.66204321 62.2844101 17 75 C16.34 75.99 15.68 76.98 15 78 C14.34 78 13.68 78 13 78 C13 78.66 13 79.32 13 80 C12.34 80 11.68 80 11 80 C11 80.66 11 81.32 11 82 C10.34 82 9.68 82 9 82 C9 82.66 9 83.32 9 84 C-0.56497395 92.08633063 -11.56801581 95.17738895 -23.8125 95.1875 C-24.96588867 95.20586914 -24.96588867 95.20586914 -26.14257812 95.22460938 C-34.40351141 95.24552313 -40.80201515 93.37921983 -48.1875 89.625 C-49.35667969 89.03976563 -50.52585937 88.45453125 -51.73046875 87.8515625 C-54.7908457 86.1184458 -57.40715525 84.37311215 -60 82 C-60 81.34 -60 80.68 -60 80 C-60.66 80 -61.32 80 -62 80 C-66 74.58823529 -66 74.58823529 -66 72 C-66.66 72 -67.32 72 -68 72 C-68.63309191 70.81679424 -69.25596718 69.62812152 -69.875 68.4375 C-70.22304687 67.77621094 -70.57109375 67.11492187 -70.9296875 66.43359375 C-76.52721532 53.70636809 -76.06082349 38.84760913 -71.75 25.8125 C-66.61783475 13.34496725 -57.07903979 3.80967412 -45.15234375 -2.140625 C-31.6187999 -7.54421783 -12.50954577 -7.83586809 0 0 Z " fill="#323232" transform="translate(126,55)"/>
<path d="M0 0 C1.3921875 0.3403125 1.3921875 0.3403125 2.8125 0.6875 C4.11354511 5.11105336 3.29492936 7.39625712 1.8125 11.6875 C-1.23502949 25.08435782 -0.89270347 37.49088489 2.8125 50.6875 C3.06386719 51.63109375 3.31523437 52.5746875 3.57421875 53.546875 C4.83570005 58.05883987 6.28232626 61.7115127 8.8125 65.6875 C8.8125 66.6775 8.8125 67.6675 8.8125 68.6875 C9.4725 68.6875 10.1325 68.6875 10.8125 68.6875 C11.4725 70.6675 12.1325 72.6475 12.8125 74.6875 C13.4725 74.6875 14.1325 74.6875 14.8125 74.6875 C15.92941991 76.04018136 16.98170843 77.44659557 18 78.875 C21.20742114 83.16054589 24.40529985 85.71938561 28.8125 88.6875 C28.8125 89.3475 28.8125 90.0075 28.8125 90.6875 C29.51632813 90.94789063 30.22015625 91.20828125 30.9453125 91.4765625 C34.03140474 92.77995296 36.79366597 94.37627101 39.6875 96.0625 C55.63547913 104.57875641 75.27941678 107.08252587 92.84790039 102.03686523 C96.54362587 100.83017948 100.13721584 99.45038985 103.67553711 97.83911133 C107.90460206 95.92682397 110.27327258 95.4696585 114.8125 96.6875 C116.14154884 101.0371144 116.14154884 101.0371144 114.8125 103.6640625 C112.0229977 106.48625428 108.79516689 107.53855778 105.125 108.8125 C104.44244141 109.06386719 103.75988281 109.31523437 103.05664062 109.57421875 C81.72545656 117.26875351 58.50884603 116.40225321 37.90234375 106.94140625 C32.2924356 104.24443225 26.84079465 101.37944607 21.8125 97.6875 C21.8125 97.0275 21.8125 96.3675 21.8125 95.6875 C21.26078125 95.460625 20.7090625 95.23375 20.140625 95 C17.12557583 93.30024074 15.00019631 91.13945184 12.5625 88.6875 C11.67046875 87.800625 10.7784375 86.91375 9.859375 86 C7.8125 83.6875 7.8125 83.6875 7.8125 81.6875 C7.1525 81.6875 6.4925 81.6875 5.8125 81.6875 C4.8225 78.7175 4.8225 78.7175 3.8125 75.6875 C3.1525 75.6875 2.4925 75.6875 1.8125 75.6875 C-9.83374982 53.10169028 -14.13113657 30.69771322 -7.35546875 5.671875 C-5.64860807 1.310532 -4.84178306 -0.47468461 0 0 Z " fill="#303030" transform="translate(28.1875,69.3125)"/>
<path d="M0 0 C2.72613681 1.57342048 2.72613681 1.57342048 5.7578125 2.48828125 C5.7578125 3.14828125 5.7578125 3.80828125 5.7578125 4.48828125 C6.5209375 4.77703125 7.2840625 5.06578125 8.0703125 5.36328125 C10.7578125 6.48828125 10.7578125 6.48828125 13.7578125 8.48828125 C13.7578125 9.14828125 13.7578125 9.80828125 13.7578125 10.48828125 C14.33015625 10.73578125 14.9025 10.98328125 15.4921875 11.23828125 C18.10791861 12.68144324 19.90554706 14.37044347 22.0078125 16.48828125 C22.71421875 17.18953125 23.420625 17.89078125 24.1484375 18.61328125 C25.7578125 20.48828125 25.7578125 20.48828125 25.7578125 22.48828125 C26.4178125 22.48828125 27.0778125 22.48828125 27.7578125 22.48828125 C39.27649533 37.872468 44.16089249 55.02719764 44.1953125 74.05078125 C44.19840927 75.04482971 44.19840927 75.04482971 44.2015686 76.05895996 C44.1957813 86.40291203 43.64839172 96.17551631 38.7578125 105.48828125 C35.7578125 107.48828125 35.7578125 107.48828125 33.6953125 107.23828125 C31.7578125 106.48828125 31.7578125 106.48828125 29.7578125 104.48828125 C30.00564028 99.94477201 30.8689419 96.15519146 32.3203125 91.86328125 C37.22158155 74.41767509 34.07918086 54.86970519 25.5703125 39.17578125 C24.87320952 37.94782932 24.17171522 36.72235479 23.46484375 35.5 C21.7578125 32.48828125 21.7578125 32.48828125 20.7578125 29.48828125 C20.0978125 29.48828125 19.4378125 29.48828125 18.7578125 29.48828125 C17.34765625 28.01953125 17.34765625 28.01953125 15.6953125 25.98828125 C2.81603449 10.96245691 -13.53976416 2.49617153 -33.2421875 0.48828125 C-45.96327024 -0.25185447 -57.04461935 1.58608434 -68.72387695 6.54345703 C-72.63536804 8.14719284 -75.17171504 8.8451054 -79.2421875 7.48828125 C-79.6171875 4.23828125 -79.6171875 4.23828125 -79.2421875 0.48828125 C-60.39602658 -17.8343752 -20.63947152 -11.18170905 0 0 Z " fill="#303030" transform="translate(141.2421875,25.51171875)"/>
<path d="M0 0 C1.093125 0.66 2.18625 1.32 3.3125 2 C3.3125 2.66 3.3125 3.32 3.3125 4 C3.9725 4 4.6325 4 5.3125 4 C5.3125 4.66 5.3125 5.32 5.3125 6 C5.9725 6 6.6325 6 7.3125 6 C10.47782625 11.97737949 12.522987 17.19101062 11.3125 24 C10.20655503 27.13192174 8.86598665 30.06640691 7.3125 33 C6.6525 33 5.9925 33 5.3125 33 C5.3125 33.66 5.3125 34.32 5.3125 35 C4.6525 35 3.9925 35 3.3125 35 C3.3125 35.66 3.3125 36.32 3.3125 37 C-3.09087472 40.86618851 -8.22167993 42.05720372 -15.6875 41 C-21.86630916 39.2027216 -26.20017532 35.34204831 -29.6875 30 C-32.45759837 24.19417738 -32.80820508 17.91911238 -31.03515625 11.71875 C-28.41102551 5.86232088 -24.07459011 1.6160626 -18.296875 -1.140625 C-12.16548101 -3.15994637 -5.77429759 -2.89742335 0 0 Z " fill="#313131" transform="translate(45.6875,22)"/>
<path d="M0 0 C0 0.66 0 1.32 0 2 C0.66 2 1.32 2 2 2 C5.39150025 7.82914105 7.01872027 12.23368509 6 19 C4.03565961 24.67476113 0.37199338 28.31400331 -5 31 C-17.14215903 32.18874284 -17.14215903 32.18874284 -22.0625 29.0625 C-25.75900605 25.79925027 -27.80245473 21.74259651 -29 17 C-29.29141473 11.82973866 -27.78585263 7.32287477 -25 3 C-17.40698875 -4.89161282 -9.51383494 -4.00582524 0 0 Z " fill="#313131" transform="translate(175,140)"/>
</svg>
